<?xml version="1.0" standalone="no"?>
<!DOCTYPE svg PUBLIC "-//W3C//DTD SVG 20010904//EN"
 "http://www.w3.org/TR/2001/REC-SVG-20010904/DTD/svg10.dtd">
<svg version="1.0" xmlns="http://www.w3.org/2000/svg"
 width="124.000000pt" height="124.000000pt" viewBox="0 0 124.000000 124.000000"
 preserveAspectRatio="xMidYMid meet">
<metadata>
Created by potrace 1.14, written by Peter Selinger 2001-2017
</metadata>
<g transform="translate(0.000000,124.000000) scale(0.100000,-0.100000)"
fill="#000000" stroke="none">
<path d="M545 1102 c4 -12 3 -12 -9 -3 -24 20 -79 0 -96 -35 -18 -37 -20 -175
-2 -182 6 -2 10 -8 7 -12 -7 -12 74 -92 86 -84 5 3 7 8 5 12 -2 4 22 8 54 10
93 5 161 -32 200 -109 32 -62 14 -165 -36 -211 -42 -37 -91 -56 -140 -55 -42
2 -48 0 -48 -18 1 -45 27 -96 65 -126 49 -38 69 -76 69 -128 l0 -39 59 18 c75
22 156 69 199 113 l33 34 -35 21 c-70 41 -32 99 40 60 l38 -20 17 21 c10 12
28 48 40 79 31 78 34 251 5 329 -11 29 -24 49 -29 46 -6 -3 -7 -1 -3 6 9 13
-25 71 -73 124 l-34 38 -19 -31 c-33 -55 -39 -59 -65 -37 -21 19 -29 67 -11
67 4 0 12 9 18 21 10 17 8 24 -11 39 -12 11 -26 17 -30 14 -5 -3 -9 0 -9 6 0
7 -8 9 -21 5 -13 -4 -19 -3 -16 2 11 17 -75 37 -166 38 -74 1 -87 -1 -82 -13z
m138 -1 c4 -1 7 -8 7 -16 0 -8 5 -15 10 -15 22 0 -28 -40 -65 -53 -62 -22
-107 7 -77 49 9 14 83 41 102 38 8 -1 18 -3 23 -3z m-213 -55 c0 -3 -4 -8 -10
-11 -5 -3 -10 -1 -10 4 0 6 5 11 10 11 6 0 10 -2 10 -4z m285 -6 c-3 -5 -12
-10 -18 -10 -7 0 -6 4 3 10 19 12 23 12 15 0z m55 -20 c0 -5 -5 -10 -11 -10
-5 0 -7 5 -4 10 3 6 8 10 11 10 2 0 4 -4 4 -10z m-345 -20 c3 -5 1 -10 -4 -10
-6 0 -11 5 -11 10 0 6 2 10 4 10 3 0 8 -4 11 -10z m279 -96 c-20 -19 -44 -34
-51 -34 -7 0 -13 -6 -13 -12 0 -7 -7 0 -16 17 -8 16 -13 39 -10 50 6 22 66 65
91 65 8 0 15 6 16 13 1 6 6 -5 11 -27 10 -37 9 -39 -28 -72z m-139 67 c3 -5 2
-12 -3 -15 -5 -3 -9 1 -9 9 0 17 3 19 12 6z m-42 -24 c7 3 9 3 5 -2 -5 -5 2
-13 15 -19 33 -17 35 -54 1 -66 -16 -6 -31 -7 -38 -1 -6 5 -26 12 -43 16 -28
6 -33 11 -33 36 0 20 -4 28 -12 23 -7 -4 -8 -3 -4 5 4 6 11 9 15 7 4 -3 13 -1
21 4 7 4 24 4 38 -1 13 -5 29 -6 35 -2z m280 -102 c4 3 5 2 3 -1 -3 -3 5 -24
16 -46 16 -30 19 -45 11 -57 -14 -22 -52 -22 -64 1 -5 10 -14 16 -19 13 -6 -3
-7 1 -4 9 3 9 2 16 -3 16 -5 0 -10 14 -11 31 -3 40 25 65 49 43 9 -8 19 -12
22 -9z m182 -55 c9 -27 -33 -101 -63 -111 -19 -7 -25 -4 -34 16 -12 26 -2 57
32 97 20 24 57 23 65 -2z m-13 -228 c32 -13 41 -27 33 -51 -9 -29 -33 -29
-110 0 -56 21 -71 31 -73 50 -2 13 3 28 13 35 16 12 31 8 137 -34z m-152 -128
c0 -18 -8 -27 -27 -35 -52 -20 -88 -22 -102 -6 -19 24 2 53 51 70 51 17 78 7
78 -29z m-60 -141 c49 -32 68 -54 63 -73 -9 -34 -39 -33 -88 0 -45 31 -55 56
-33 78 16 16 29 15 58 -5z"/>
<path d="M287 990 c-322 -294 -143 -829 289 -867 62 -5 63 -5 70 21 12 51 -7
88 -67 128 -67 44 -92 88 -88 157 2 34 -3 56 -17 77 -11 16 -25 40 -30 54 -13
30 -9 119 5 133 18 18 12 38 -24 78 -59 66 -79 115 -78 197 0 39 -1 72 -3 72
-1 0 -27 -23 -57 -50z"/>
<path d="M552 775 c-87 -38 -128 -146 -86 -228 68 -131 253 -127 309 6 59 142
-83 283 -223 222z"/>
</g>
</svg>
